<mxfile host="app.diagrams.net" modified="2023-06-22T05:46:19.860Z" agent="Mozilla/5.0 (Windows NT 10.0; Win64; x64) AppleWebKit/537.36 (KHTML, like Gecko) Chrome/114.0.0.0 Safari/537.36" etag="a61FSsSkDvhv_HOu7joi" version="21.3.7" type="github">
  <diagram name="Page-1" id="5ynIwaxXUmfdif7BNhBf">
    <mxGraphModel dx="1434" dy="834" grid="1" gridSize="10" guides="1" tooltips="1" connect="1" arrows="1" fold="1" page="1" pageScale="1" pageWidth="850" pageHeight="1100" math="0" shadow="0">
      <root>
        <mxCell id="0" />
        <mxCell id="1" parent="0" />
        <mxCell id="TlNVX2mSy_ax8H4LxQk2-4" style="edgeStyle=orthogonalEdgeStyle;rounded=0;orthogonalLoop=1;jettySize=auto;html=1;exitX=0.5;exitY=1;exitDx=0;exitDy=0;exitPerimeter=0;entryX=0.5;entryY=0;entryDx=0;entryDy=0;" edge="1" parent="1" source="TlNVX2mSy_ax8H4LxQk2-1" target="TlNVX2mSy_ax8H4LxQk2-3">
          <mxGeometry relative="1" as="geometry" />
        </mxCell>
        <mxCell id="TlNVX2mSy_ax8H4LxQk2-1" value="Start" style="strokeWidth=2;html=1;shape=mxgraph.flowchart.start_2;whiteSpace=wrap;" vertex="1" parent="1">
          <mxGeometry x="300" y="40" width="120" height="60" as="geometry" />
        </mxCell>
        <mxCell id="TlNVX2mSy_ax8H4LxQk2-6" style="edgeStyle=orthogonalEdgeStyle;rounded=0;orthogonalLoop=1;jettySize=auto;html=1;exitX=0.5;exitY=1;exitDx=0;exitDy=0;entryX=0.5;entryY=0;entryDx=0;entryDy=0;entryPerimeter=0;" edge="1" parent="1" source="TlNVX2mSy_ax8H4LxQk2-3" target="TlNVX2mSy_ax8H4LxQk2-5">
          <mxGeometry relative="1" as="geometry" />
        </mxCell>
        <mxCell id="TlNVX2mSy_ax8H4LxQk2-3" value="&lt;div style=&quot;&quot;&gt;&lt;span style=&quot;background-color: initial;&quot;&gt;Enter divisor(dv) and dividend(dn)&lt;/span&gt;&lt;/div&gt;" style="shape=parallelogram;html=1;strokeWidth=2;perimeter=parallelogramPerimeter;whiteSpace=wrap;rounded=1;arcSize=12;size=0.23;align=center;" vertex="1" parent="1">
          <mxGeometry x="280" y="120" width="160" height="60" as="geometry" />
        </mxCell>
        <mxCell id="TlNVX2mSy_ax8H4LxQk2-8" style="edgeStyle=orthogonalEdgeStyle;rounded=0;orthogonalLoop=1;jettySize=auto;html=1;exitX=1;exitY=0.5;exitDx=0;exitDy=0;exitPerimeter=0;entryX=0;entryY=0.5;entryDx=0;entryDy=0;" edge="1" parent="1" source="TlNVX2mSy_ax8H4LxQk2-5" target="TlNVX2mSy_ax8H4LxQk2-7">
          <mxGeometry relative="1" as="geometry" />
        </mxCell>
        <mxCell id="TlNVX2mSy_ax8H4LxQk2-12" style="edgeStyle=orthogonalEdgeStyle;rounded=0;orthogonalLoop=1;jettySize=auto;html=1;exitX=0.5;exitY=1;exitDx=0;exitDy=0;exitPerimeter=0;entryX=0.5;entryY=0;entryDx=0;entryDy=0;" edge="1" parent="1" source="TlNVX2mSy_ax8H4LxQk2-5" target="TlNVX2mSy_ax8H4LxQk2-11">
          <mxGeometry relative="1" as="geometry" />
        </mxCell>
        <mxCell id="TlNVX2mSy_ax8H4LxQk2-5" value="dv&amp;gt;0" style="strokeWidth=2;html=1;shape=mxgraph.flowchart.decision;whiteSpace=wrap;" vertex="1" parent="1">
          <mxGeometry x="310" y="200" width="100" height="100" as="geometry" />
        </mxCell>
        <mxCell id="TlNVX2mSy_ax8H4LxQk2-7" value="Please enter a divisor that is not a zero" style="shape=parallelogram;html=1;strokeWidth=2;perimeter=parallelogramPerimeter;whiteSpace=wrap;rounded=1;arcSize=12;size=0.23;align=center;" vertex="1" parent="1">
          <mxGeometry x="480" y="220" width="160" height="60" as="geometry" />
        </mxCell>
        <mxCell id="TlNVX2mSy_ax8H4LxQk2-9" style="edgeStyle=orthogonalEdgeStyle;rounded=0;orthogonalLoop=1;jettySize=auto;html=1;exitX=0.5;exitY=0;exitDx=0;exitDy=0;entryX=1;entryY=0.5;entryDx=0;entryDy=0;" edge="1" parent="1" source="TlNVX2mSy_ax8H4LxQk2-7" target="TlNVX2mSy_ax8H4LxQk2-3">
          <mxGeometry relative="1" as="geometry">
            <mxPoint x="420" y="260" as="sourcePoint" />
            <mxPoint x="520" y="90" as="targetPoint" />
            <Array as="points">
              <mxPoint x="560" y="150" />
            </Array>
          </mxGeometry>
        </mxCell>
        <mxCell id="TlNVX2mSy_ax8H4LxQk2-10" value="NO" style="text;strokeColor=none;align=center;fillColor=none;html=1;verticalAlign=middle;whiteSpace=wrap;rounded=0;" vertex="1" parent="1">
          <mxGeometry x="410" y="240" width="40" height="10" as="geometry" />
        </mxCell>
        <mxCell id="TlNVX2mSy_ax8H4LxQk2-14" style="edgeStyle=orthogonalEdgeStyle;rounded=0;orthogonalLoop=1;jettySize=auto;html=1;exitX=0.5;exitY=1;exitDx=0;exitDy=0;entryX=0.5;entryY=0;entryDx=0;entryDy=0;" edge="1" parent="1" source="TlNVX2mSy_ax8H4LxQk2-11" target="TlNVX2mSy_ax8H4LxQk2-13">
          <mxGeometry relative="1" as="geometry" />
        </mxCell>
        <mxCell id="TlNVX2mSy_ax8H4LxQk2-11" value="&lt;b&gt;Q=dn/dv&lt;/b&gt;" style="rounded=1;whiteSpace=wrap;html=1;absoluteArcSize=1;arcSize=14;strokeWidth=2;align=center;" vertex="1" parent="1">
          <mxGeometry x="310" y="330" width="100" height="30" as="geometry" />
        </mxCell>
        <mxCell id="TlNVX2mSy_ax8H4LxQk2-17" style="edgeStyle=orthogonalEdgeStyle;rounded=0;orthogonalLoop=1;jettySize=auto;html=1;exitX=0.5;exitY=1;exitDx=0;exitDy=0;entryX=0.5;entryY=0;entryDx=0;entryDy=0;entryPerimeter=0;" edge="1" parent="1" source="TlNVX2mSy_ax8H4LxQk2-13" target="TlNVX2mSy_ax8H4LxQk2-16">
          <mxGeometry relative="1" as="geometry" />
        </mxCell>
        <mxCell id="TlNVX2mSy_ax8H4LxQk2-13" value="Q" style="shape=parallelogram;html=1;strokeWidth=2;perimeter=parallelogramPerimeter;whiteSpace=wrap;rounded=1;arcSize=12;size=0.23;" vertex="1" parent="1">
          <mxGeometry x="310" y="380" width="100" height="30" as="geometry" />
        </mxCell>
        <mxCell id="TlNVX2mSy_ax8H4LxQk2-16" value="Stop" style="strokeWidth=2;html=1;shape=mxgraph.flowchart.start_2;whiteSpace=wrap;" vertex="1" parent="1">
          <mxGeometry x="300" y="430" width="120" height="60" as="geometry" />
        </mxCell>
        <mxCell id="TlNVX2mSy_ax8H4LxQk2-18" value="YES" style="text;strokeColor=none;align=center;fillColor=none;html=1;verticalAlign=middle;whiteSpace=wrap;rounded=0;" vertex="1" parent="1">
          <mxGeometry x="360" y="310" width="30" as="geometry" />
        </mxCell>
      </root>
    </mxGraphModel>
  </diagram>
</mxfile>
